<svg width="285" height="40" viewBox="0 0 285 40" fill="none" xmlns="http://www.w3.org/2000/svg">
<g clip-path="url(#clip0_34_1016)">
<path d="M3.204 13.292V20.834C3.204 21.962 3.45 22.802 3.942 23.354C4.446 23.906 5.148 24.182 6.048 24.182C6.936 24.182 7.626 23.906 8.118 23.354C8.622 22.802 8.874 21.962 8.874 20.834V13.292H10.926V20.834C10.926 22.574 10.476 23.894 9.576 24.794C8.676 25.682 7.488 26.126 6.012 26.126C4.548 26.126 3.372 25.682 2.484 24.794C1.596 23.894 1.152 22.574 1.152 20.834V13.292H3.204ZM19.0062 15.956C19.8702 15.956 20.6382 16.16 21.3102 16.568C21.9942 16.976 22.5282 17.564 22.9122 18.332C23.2962 19.1 23.4882 20 23.4882 21.032C23.4882 22.076 23.2962 22.982 22.9122 23.75C22.5282 24.518 21.9942 25.106 21.3102 25.514C20.6382 25.922 19.8702 26.126 19.0062 26.126C18.1062 26.126 17.3382 25.904 16.7022 25.46C16.0662 25.016 15.6222 24.428 15.3702 23.696V26H13.3182V12.68H15.3702V18.386C15.6222 17.654 16.0662 17.066 16.7022 16.622C17.3382 16.178 18.1062 15.956 19.0062 15.956ZM18.3762 17.756C17.8002 17.756 17.2842 17.894 16.8282 18.17C16.3722 18.434 16.0122 18.818 15.7482 19.322C15.4842 19.814 15.3522 20.384 15.3522 21.032C15.3522 21.692 15.4842 22.268 15.7482 22.76C16.0122 23.252 16.3722 23.636 16.8282 23.912C17.2842 24.176 17.8002 24.308 18.3762 24.308C19.2882 24.308 20.0202 24.02 20.5722 23.444C21.1242 22.856 21.4002 22.052 21.4002 21.032C21.4002 20.024 21.1242 19.226 20.5722 18.638C20.0202 18.05 19.2882 17.756 18.3762 17.756ZM34.6807 20.564C34.6807 20.9 34.6567 21.194 34.6087 21.446H26.9767C27.0127 22.466 27.2947 23.222 27.8227 23.714C28.3507 24.206 29.0047 24.452 29.7847 24.452C30.4687 24.452 31.0447 24.278 31.5127 23.93C31.9927 23.582 32.2867 23.12 32.3947 22.544H34.5907C34.4587 23.24 34.1827 23.858 33.7627 24.398C33.3427 24.938 32.7967 25.364 32.1247 25.676C31.4527 25.976 30.7027 26.126 29.8747 26.126C28.9147 26.126 28.0627 25.922 27.3187 25.514C26.5867 25.106 26.0107 24.518 25.5907 23.75C25.1707 22.982 24.9607 22.076 24.9607 21.032C24.9607 20 25.1707 19.1 25.5907 18.332C26.0107 17.564 26.5867 16.976 27.3187 16.568C28.0627 16.16 28.9147 15.956 29.8747 15.956C30.8467 15.956 31.6927 16.16 32.4127 16.568C33.1447 16.964 33.7027 17.516 34.0867 18.224C34.4827 18.92 34.6807 19.7 34.6807 20.564ZM32.6107 20.51C32.6347 19.862 32.5207 19.322 32.2687 18.89C32.0287 18.446 31.6927 18.122 31.2607 17.918C30.8407 17.702 30.3787 17.594 29.8747 17.594C29.0707 17.594 28.3987 17.84 27.8587 18.332C27.3187 18.824 27.0247 19.55 26.9767 20.51H32.6107ZM38.7139 18.026C39.0499 17.378 39.5299 16.868 40.1539 16.496C40.7779 16.112 41.4979 15.92 42.3139 15.92V18.152H41.7019C40.8019 18.152 40.0759 18.374 39.5239 18.818C38.9839 19.25 38.7139 19.97 38.7139 20.978V26H36.6619V16.082H38.7139V18.026Z" fill="#344563"/>
<circle cx="59" cy="20" r="4" fill="#C1C7D0"/>
<path d="M77.952 24.722H82.452V26H76.314V13.31H77.952V24.722ZM93.2087 20.51C93.2087 20.858 93.1847 21.158 93.1367 21.41H85.2347C85.2707 22.538 85.5887 23.384 86.1887 23.948C86.8007 24.512 87.5447 24.794 88.4207 24.794C89.2127 24.794 89.8727 24.596 90.4007 24.2C90.9407 23.792 91.2707 23.252 91.3907 22.58H93.1367C93.0167 23.264 92.7467 23.876 92.3267 24.416C91.9187 24.956 91.3847 25.376 90.7247 25.676C90.0647 25.976 89.3207 26.126 88.4927 26.126C87.5447 26.126 86.7047 25.922 85.9727 25.514C85.2407 25.106 84.6647 24.524 84.2447 23.768C83.8367 23 83.6327 22.1 83.6327 21.068C83.6327 20.036 83.8367 19.136 84.2447 18.368C84.6647 17.6 85.2407 17.012 85.9727 16.604C86.7047 16.196 87.5447 15.992 88.4927 15.992C89.4527 15.992 90.2867 16.196 90.9947 16.604C91.7147 17.012 92.2607 17.558 92.6327 18.242C93.0167 18.926 93.2087 19.682 93.2087 20.51ZM91.5527 20.618C91.5887 19.886 91.4687 19.274 91.1927 18.782C90.9167 18.29 90.5387 17.924 90.0587 17.684C89.5787 17.444 89.0567 17.324 88.4927 17.324C87.5927 17.324 86.8367 17.606 86.2247 18.17C85.6127 18.722 85.2827 19.538 85.2347 20.618H91.5527ZM99.4011 15.992C100.361 15.992 101.171 16.232 101.831 16.712C102.503 17.192 102.971 17.834 103.235 18.638V16.118H104.873V26H103.235V23.48C102.971 24.284 102.503 24.926 101.831 25.406C101.171 25.886 100.361 26.126 99.4011 26.126C98.5251 26.126 97.7451 25.922 97.0611 25.514C96.3771 25.106 95.8371 24.524 95.4411 23.768C95.0571 23 94.8651 22.1 94.8651 21.068C94.8651 20.036 95.0571 19.136 95.4411 18.368C95.8371 17.6 96.3771 17.012 97.0611 16.604C97.7451 16.196 98.5251 15.992 99.4011 15.992ZM99.8691 17.45C98.8611 17.45 98.0511 17.774 97.4391 18.422C96.8391 19.058 96.5391 19.94 96.5391 21.068C96.5391 22.196 96.8391 23.084 97.4391 23.732C98.0511 24.368 98.8611 24.686 99.8691 24.686C100.517 24.686 101.093 24.536 101.597 24.236C102.113 23.936 102.515 23.516 102.803 22.976C103.091 22.424 103.235 21.788 103.235 21.068C103.235 20.348 103.091 19.712 102.803 19.16C102.515 18.608 102.113 18.188 101.597 17.9C101.093 17.6 100.517 17.45 99.8691 17.45ZM111.53 15.992C112.49 15.992 113.3 16.232 113.96 16.712C114.632 17.192 115.1 17.834 115.364 18.638V12.68H117.002V26H115.364V23.48C115.1 24.284 114.632 24.926 113.96 25.406C113.3 25.886 112.49 26.126 111.53 26.126C110.654 26.126 109.874 25.922 109.19 25.514C108.506 25.106 107.966 24.524 107.57 23.768C107.186 23 106.994 22.1 106.994 21.068C106.994 20.036 107.186 19.136 107.57 18.368C107.966 17.6 108.506 17.012 109.19 16.604C109.874 16.196 110.654 15.992 111.53 15.992ZM111.998 17.45C110.99 17.45 110.18 17.774 109.568 18.422C108.968 19.058 108.668 19.94 108.668 21.068C108.668 22.196 108.968 23.084 109.568 23.732C110.18 24.368 110.99 24.686 111.998 24.686C112.646 24.686 113.222 24.536 113.726 24.236C114.242 23.936 114.644 23.516 114.932 22.976C115.22 22.424 115.364 21.788 115.364 21.068C115.364 20.348 115.22 19.712 114.932 19.16C114.644 18.608 114.242 18.188 113.726 17.9C113.222 17.6 112.646 17.45 111.998 17.45ZM134.748 19.646C134.748 20.93 134.49 22.052 133.974 23.012C133.458 23.96 132.696 24.698 131.688 25.226C130.692 25.742 129.492 26 128.088 26H124.056V13.31H128.088C129.492 13.31 130.692 13.568 131.688 14.084C132.696 14.588 133.458 15.32 133.974 16.28C134.49 17.228 134.748 18.35 134.748 19.646ZM127.962 24.524C129.618 24.524 130.884 24.098 131.76 23.246C132.636 22.394 133.074 21.194 133.074 19.646C133.074 18.098 132.636 16.898 131.76 16.046C130.896 15.182 129.63 14.75 127.962 14.75H125.694V24.524H127.962ZM146.049 20.51C146.049 20.858 146.025 21.158 145.977 21.41H138.075C138.111 22.538 138.429 23.384 139.029 23.948C139.641 24.512 140.385 24.794 141.261 24.794C142.053 24.794 142.713 24.596 143.241 24.2C143.781 23.792 144.111 23.252 144.231 22.58H145.977C145.857 23.264 145.587 23.876 145.167 24.416C144.759 24.956 144.225 25.376 143.565 25.676C142.905 25.976 142.161 26.126 141.333 26.126C140.385 26.126 139.545 25.922 138.813 25.514C138.081 25.106 137.505 24.524 137.085 23.768C136.677 23 136.473 22.1 136.473 21.068C136.473 20.036 136.677 19.136 137.085 18.368C137.505 17.6 138.081 17.012 138.813 16.604C139.545 16.196 140.385 15.992 141.333 15.992C142.293 15.992 143.127 16.196 143.835 16.604C144.555 17.012 145.101 17.558 145.473 18.242C145.857 18.926 146.049 19.682 146.049 20.51ZM144.393 20.618C144.429 19.886 144.309 19.274 144.033 18.782C143.757 18.29 143.379 17.924 142.899 17.684C142.419 17.444 141.897 17.324 141.333 17.324C140.433 17.324 139.677 17.606 139.065 18.17C138.453 18.722 138.123 19.538 138.075 20.618H144.393ZM152.025 24.254L155.085 16.118H156.849L152.979 26H151.035L147.165 16.118H148.929L152.025 24.254ZM167.547 20.51C167.547 20.858 167.523 21.158 167.475 21.41H159.573C159.609 22.538 159.927 23.384 160.527 23.948C161.139 24.512 161.883 24.794 162.759 24.794C163.551 24.794 164.211 24.596 164.739 24.2C165.279 23.792 165.609 23.252 165.729 22.58H167.475C167.355 23.264 167.085 23.876 166.665 24.416C166.257 24.956 165.723 25.376 165.063 25.676C164.403 25.976 163.659 26.126 162.831 26.126C161.883 26.126 161.043 25.922 160.311 25.514C159.579 25.106 159.003 24.524 158.583 23.768C158.175 23 157.971 22.1 157.971 21.068C157.971 20.036 158.175 19.136 158.583 18.368C159.003 17.6 159.579 17.012 160.311 16.604C161.043 16.196 161.883 15.992 162.831 15.992C163.791 15.992 164.625 16.196 165.333 16.604C166.053 17.012 166.599 17.558 166.971 18.242C167.355 18.926 167.547 19.682 167.547 20.51ZM165.891 20.618C165.927 19.886 165.807 19.274 165.531 18.782C165.255 18.29 164.877 17.924 164.397 17.684C163.917 17.444 163.395 17.324 162.831 17.324C161.931 17.324 161.175 17.606 160.563 18.17C159.951 18.722 159.621 19.538 159.573 20.618H165.891ZM171.327 12.68V26H169.689V12.68H171.327ZM178.442 15.992C179.39 15.992 180.236 16.196 180.98 16.604C181.736 17.012 182.324 17.6 182.744 18.368C183.176 19.136 183.392 20.036 183.392 21.068C183.392 22.1 183.176 23 182.744 23.768C182.324 24.524 181.736 25.106 180.98 25.514C180.236 25.922 179.39 26.126 178.442 26.126C177.494 26.126 176.642 25.922 175.886 25.514C175.142 25.106 174.554 24.524 174.122 23.768C173.69 23 173.474 22.1 173.474 21.068C173.474 20.036 173.69 19.136 174.122 18.368C174.554 17.6 175.142 17.012 175.886 16.604C176.642 16.196 177.494 15.992 178.442 15.992ZM178.442 17.432C177.854 17.432 177.308 17.564 176.804 17.828C176.312 18.092 175.91 18.5 175.598 19.052C175.298 19.592 175.148 20.264 175.148 21.068C175.148 21.86 175.298 22.532 175.598 23.084C175.91 23.624 176.312 24.026 176.804 24.29C177.308 24.554 177.854 24.686 178.442 24.686C179.03 24.686 179.57 24.554 180.062 24.29C180.566 24.026 180.968 23.624 181.268 23.084C181.58 22.532 181.736 21.86 181.736 21.068C181.736 20.264 181.58 19.592 181.268 19.052C180.968 18.5 180.566 18.092 180.062 17.828C179.57 17.564 179.03 17.432 178.442 17.432ZM190.981 15.992C191.857 15.992 192.637 16.196 193.321 16.604C194.005 17.012 194.539 17.6 194.923 18.368C195.319 19.136 195.517 20.036 195.517 21.068C195.517 22.1 195.319 23 194.923 23.768C194.539 24.524 194.005 25.106 193.321 25.514C192.637 25.922 191.857 26.126 190.981 26.126C190.021 26.126 189.205 25.886 188.533 25.406C187.873 24.914 187.417 24.272 187.165 23.48V30.68H185.527V16.118H187.165V18.638C187.417 17.846 187.873 17.21 188.533 16.73C189.205 16.238 190.021 15.992 190.981 15.992ZM190.513 17.45C189.877 17.45 189.301 17.6 188.785 17.9C188.269 18.188 187.867 18.608 187.579 19.16C187.291 19.712 187.147 20.348 187.147 21.068C187.147 21.788 187.291 22.424 187.579 22.976C187.867 23.516 188.269 23.936 188.785 24.236C189.301 24.536 189.877 24.686 190.513 24.686C191.533 24.686 192.343 24.368 192.943 23.732C193.555 23.084 193.861 22.196 193.861 21.068C193.861 19.94 193.555 19.058 192.943 18.422C192.343 17.774 191.533 17.45 190.513 17.45ZM206.746 20.51C206.746 20.858 206.722 21.158 206.674 21.41H198.772C198.808 22.538 199.126 23.384 199.726 23.948C200.338 24.512 201.082 24.794 201.958 24.794C202.75 24.794 203.41 24.596 203.938 24.2C204.478 23.792 204.808 23.252 204.928 22.58H206.674C206.554 23.264 206.284 23.876 205.864 24.416C205.456 24.956 204.922 25.376 204.262 25.676C203.602 25.976 202.858 26.126 202.03 26.126C201.082 26.126 200.242 25.922 199.51 25.514C198.778 25.106 198.202 24.524 197.782 23.768C197.374 23 197.17 22.1 197.17 21.068C197.17 20.036 197.374 19.136 197.782 18.368C198.202 17.6 198.778 17.012 199.51 16.604C200.242 16.196 201.082 15.992 202.03 15.992C202.99 15.992 203.824 16.196 204.532 16.604C205.252 17.012 205.798 17.558 206.17 18.242C206.554 18.926 206.746 19.682 206.746 20.51ZM205.09 20.618C205.126 19.886 205.006 19.274 204.73 18.782C204.454 18.29 204.076 17.924 203.596 17.684C203.116 17.444 202.594 17.324 202.03 17.324C201.13 17.324 200.374 17.606 199.762 18.17C199.15 18.722 198.82 19.538 198.772 20.618H205.09ZM210.526 18.116C210.85 17.432 211.324 16.904 211.948 16.532C212.572 16.148 213.316 15.956 214.18 15.956V17.738H213.676C212.752 17.738 211.996 17.978 211.408 18.458C210.82 18.926 210.526 19.706 210.526 20.798V26H208.888V16.118H210.526V18.116Z" fill="#6B778C"/>
<circle cx="231" cy="20" r="4" fill="#C1C7D0"/>
<path d="M247.756 24.74C249.796 23.372 251.428 22.016 252.652 20.672C253.876 19.316 254.488 18.056 254.488 16.892C254.488 16.172 254.302 15.596 253.93 15.164C253.57 14.72 252.982 14.498 252.166 14.498C251.326 14.498 250.69 14.768 250.258 15.308C249.826 15.836 249.586 16.568 249.538 17.504H247.918C248.002 16.088 248.44 15.002 249.232 14.246C250.024 13.478 251.044 13.094 252.292 13.094C253.48 13.094 254.422 13.412 255.118 14.048C255.814 14.684 256.162 15.584 256.162 16.748C256.162 17.708 255.85 18.686 255.226 19.682C254.614 20.666 253.84 21.584 252.904 22.436C251.98 23.276 251.026 23.99 250.042 24.578H256.486V25.928H247.756V24.74ZM258.239 19.574C258.239 21.614 258.575 23.204 259.247 24.344C259.919 25.484 261.083 26.054 262.739 26.054C264.395 26.054 265.559 25.484 266.231 24.344C266.915 23.204 267.257 21.614 267.257 19.574C267.257 17.558 266.915 15.98 266.231 14.84C265.559 13.7 264.395 13.13 262.739 13.13C261.083 13.13 259.919 13.7 259.247 14.84C258.575 15.968 258.239 17.546 258.239 19.574ZM265.637 19.574C265.637 20.618 265.559 21.494 265.403 22.202C265.259 22.898 264.977 23.456 264.557 23.876C264.137 24.296 263.531 24.506 262.739 24.506C261.959 24.506 261.359 24.296 260.939 23.876C260.519 23.456 260.231 22.898 260.075 22.202C259.931 21.494 259.859 20.618 259.859 19.574C259.859 18.542 259.931 17.678 260.075 16.982C260.231 16.286 260.519 15.734 260.939 15.326C261.359 14.906 261.959 14.696 262.739 14.696C263.531 14.696 264.137 14.906 264.557 15.326C264.977 15.734 265.259 16.286 265.403 16.982C265.559 17.678 265.637 18.542 265.637 19.574ZM268.504 14.84V13.31H272.14V26H270.412V14.84H268.504ZM274.716 16.298C274.716 15.674 274.884 15.104 275.22 14.588C275.556 14.072 276.054 13.664 276.714 13.364C277.374 13.064 278.16 12.914 279.072 12.914C279.984 12.914 280.764 13.064 281.412 13.364C282.072 13.664 282.57 14.072 282.906 14.588C283.242 15.104 283.41 15.674 283.41 16.298C283.41 17.006 283.218 17.618 282.834 18.134C282.45 18.65 281.868 19.016 281.088 19.232C281.928 19.46 282.582 19.856 283.05 20.42C283.518 20.984 283.752 21.68 283.752 22.508C283.752 23.708 283.326 24.65 282.474 25.334C281.622 26.018 280.488 26.36 279.072 26.36C277.656 26.36 276.522 26.018 275.67 25.334C274.818 24.65 274.392 23.708 274.392 22.508C274.392 21.68 274.62 20.984 275.076 20.42C275.544 19.856 276.198 19.46 277.038 19.232C276.258 19.016 275.676 18.65 275.292 18.134C274.908 17.618 274.716 17.006 274.716 16.298ZM276.336 16.532C276.336 17.252 276.582 17.81 277.074 18.206C277.566 18.59 278.232 18.782 279.072 18.782C279.912 18.782 280.572 18.59 281.052 18.206C281.544 17.81 281.79 17.252 281.79 16.532C281.79 15.812 281.544 15.26 281.052 14.876C280.56 14.48 279.9 14.282 279.072 14.282C278.244 14.282 277.578 14.48 277.074 14.876C276.582 15.26 276.336 15.812 276.336 16.532ZM275.994 22.418C275.994 23.234 276.27 23.87 276.822 24.326C277.374 24.77 278.124 24.992 279.072 24.992C280.008 24.992 280.752 24.764 281.304 24.308C281.856 23.852 282.132 23.222 282.132 22.418C282.132 21.602 281.844 20.984 281.268 20.564C280.692 20.144 279.96 19.934 279.072 19.934C278.172 19.934 277.434 20.144 276.858 20.564C276.282 20.984 275.994 21.602 275.994 22.418Z" fill="#6B778C"/>
</g>
<defs>
<clipPath id="clip0_34_1016">
<rect width="285" height="40" fill="white"/>
</clipPath>
</defs>
</svg>
